<svg width="80" height="81" viewBox="0 0 80 81" fill="none" xmlns="http://www.w3.org/2000/svg">
<path d="M12.664 73.5V67.9H13.736L16.12 71.852H15.552L17.896 67.9H18.96L18.976 73.5H17.76L17.752 69.764H17.976L16.104 72.908H15.52L13.608 69.764H13.88V73.5H12.664ZM21.4646 73.5V68.956H19.6726V67.9H24.5526V68.956H22.7606V73.5H21.4646ZM25.3683 73.564C25.155 73.564 24.971 73.492 24.8163 73.348C24.667 73.1987 24.5923 73.0093 24.5923 72.78C24.5923 72.5507 24.667 72.3667 24.8163 72.228C24.971 72.084 25.155 72.012 25.3683 72.012C25.587 72.012 25.771 72.084 25.9203 72.228C26.0696 72.3667 26.1443 72.5507 26.1443 72.78C26.1443 73.0093 26.0696 73.1987 25.9203 73.348C25.771 73.492 25.587 73.564 25.3683 73.564ZM29.3437 73.5V67.9H31.7677C32.269 67.9 32.701 67.9827 33.0637 68.148C33.4264 68.308 33.7064 68.54 33.9037 68.844C34.101 69.148 34.1997 69.5107 34.1997 69.932C34.1997 70.348 34.101 70.708 33.9037 71.012C33.7064 71.3107 33.4264 71.54 33.0637 71.7C32.701 71.86 32.269 71.94 31.7677 71.94H30.0637L30.6397 71.372V73.5H29.3437ZM32.9037 73.5L31.5037 71.468H32.8877L34.3037 73.5H32.9037ZM30.6397 71.516L30.0637 70.908H31.6957C32.0957 70.908 32.3944 70.8227 32.5917 70.652C32.789 70.476 32.8877 70.236 32.8877 69.932C32.8877 69.6227 32.789 69.3827 32.5917 69.212C32.3944 69.0413 32.0957 68.956 31.6957 68.956H30.0637L30.6397 68.34V71.516ZM36.4185 70.156H39.1145V71.164H36.4185V70.156ZM36.5145 72.46H39.5625V73.5H35.2265V67.9H39.4585V68.94H36.5145V72.46ZM41.7537 73.5V68.956H39.9617V67.9H44.8417V68.956H43.0497V73.5H41.7537ZM45.539 73.5V67.9H47.963C48.4643 67.9 48.8963 67.9827 49.259 68.148C49.6217 68.308 49.9017 68.54 50.099 68.844C50.2963 69.148 50.395 69.5107 50.395 69.932C50.395 70.348 50.2963 70.708 50.099 71.012C49.9017 71.3107 49.6217 71.54 49.259 71.7C48.8963 71.86 48.4643 71.94 47.963 71.94H46.259L46.835 71.372V73.5H45.539ZM49.099 73.5L47.699 71.468H49.083L50.499 73.5H49.099ZM46.835 71.516L46.259 70.908H47.891C48.291 70.908 48.5897 70.8227 48.787 70.652C48.9843 70.476 49.083 70.236 49.083 69.932C49.083 69.6227 48.9843 69.3827 48.787 69.212C48.5897 69.0413 48.291 68.956 47.891 68.956H46.259L46.835 68.34V71.516ZM52.6138 70.156H55.3098V71.164H52.6138V70.156ZM52.7098 72.46H55.7578V73.5H51.4218V67.9H55.6538V68.94H52.7098V72.46ZM56.053 73.5L58.549 67.9H59.829L62.333 73.5H60.973L58.925 68.556H59.437L57.381 73.5H56.053ZM57.301 72.3L57.645 71.316H60.525L60.877 72.3H57.301ZM63.7928 73.5V68.956H62.0008V67.9H66.8808V68.956H65.0888V73.5H63.7928Z" fill="white"/>
<path d="M35.6948 18.6211L48.801 44.9241H22.5886L35.6948 18.6211Z" stroke="white" stroke-width="1.5" stroke-linejoin="round"/>
<path d="M45.0564 36.4696L50.3429 29.8938L60.0349 44.9241H48.801M30.0778 29.8938H41.3117M31.9501 26.1362L28.2055 33.6514M39.4394 26.1362L43.184 33.6514" stroke="white" stroke-width="1.5" stroke-linecap="round" stroke-linejoin="round"/>
</svg>
