<svg width="54" height="54" viewBox="0 0 54 54" fill="none" xmlns="http://www.w3.org/2000/svg">
<circle cx="27" cy="27" r="27" fill="#484848"/>
<path fill-rule="evenodd" clip-rule="evenodd" d="M31.325 29.8992L36.705 35.2792C36.8941 35.4685 37.0003 35.7251 37.0002 35.9926C37.0001 36.2601 36.8937 36.5166 36.7045 36.7057C36.5153 36.8948 36.2587 37.001 35.9912 37.0009C35.7236 37.0008 35.4671 36.8945 35.278 36.7052L29.898 31.3252C28.2897 32.5709 26.2673 33.1571 24.2421 32.9646C22.217 32.7721 20.3412 31.8153 18.9965 30.2888C17.6517 28.7624 16.939 26.781 17.0033 24.7478C17.0675 22.7145 17.904 20.7821 19.3424 19.3436C20.7809 17.9052 22.7133 17.0687 24.7466 17.0045C26.7798 16.9402 28.7612 17.653 30.2876 18.9977C31.814 20.3425 32.7708 22.2182 32.9634 24.2434C33.1559 26.2685 32.5697 28.2909 31.324 29.8992H31.325ZM25 31.0002C26.5913 31.0002 28.1174 30.3681 29.2427 29.2429C30.3679 28.1177 31 26.5915 31 25.0002C31 23.4089 30.3679 21.8828 29.2427 20.7576C28.1174 19.6324 26.5913 19.0002 25 19.0002C23.4087 19.0002 21.8826 19.6324 20.7574 20.7576C19.6322 21.8828 19 23.4089 19 25.0002C19 26.5915 19.6322 28.1177 20.7574 29.2429C21.8826 30.3681 23.4087 31.0002 25 31.0002Z" fill="white"/>
</svg>
